<svg width="250" height="250" viewBox="0 0 17 16" fill="none" xmlns="http://www.w3.org/2000/svg">
<path d="M15 8A7.5 7.5 0 1 1 0 8a7.5 7.5 0 0 1 15 0Z" fill="white"></path>
<path d="M1.154 7.03a6.326 6.326 0 0 1 2.333-3.985l.058.034c.35.208.565.585.565.993V5.44c0 .408-.215.785-.565.993l-1.112.658a1.154 1.154 0 0 1-1.176 0l-.103-.06ZM3.497 12.963a6.326 6.326 0 0 1-2.341-3.981l.087-.05c.355-.2.79-.197 1.143.007l1.183.684c.353.204.573.579.577.987l.015 1.292c.004.422-.221.812-.588 1.019l-.076.042ZM13.846 8.938a6.324 6.324 0 0 1-2.313 3.997l-.024-.014a1.154 1.154 0 0 1-.565-.993V10.56c0-.408.215-.785.565-.993l1.112-.658a1.154 1.154 0 0 1 1.176 0l.049.029ZM11.522 3.056a6.325 6.325 0 0 1 2.322 3.992l-.033.02c-.355.2-.79.197-1.143-.007l-1.183-.684a1.154 1.154 0 0 1-.577-.987l-.015-1.292c-.004-.422.22-.812.588-1.019l.04-.023ZM9.83 2.086l-.001.06a1.154 1.154 0 0 1-.577.987l-1.184.684a1.153 1.153 0 0 1-1.142.006L5.799 3.19a1.154 1.154 0 0 1-.587-1.018v-.103a6.468 6.468 0 0 1 2.286-.414c.822 0 1.609.153 2.331.432ZM5.803 6.415c-.353.204-.573.58-.577.987l-.014 1.293c-.005.422.22.812.587 1.018l1.127.634c.355.2.79.198 1.142-.006l1.184-.684c.353-.204.572-.579.577-.987l.014-1.292a1.154 1.154 0 0 0-.588-1.019L8.13 5.725c-.355-.2-.79-.197-1.143.007l-1.183.683Z" fill="black">
</path>
<path d="M16 8.97H1a1 1 0 0 0-1 1v4.526a1 1 0 0 0 1 1h15a1 1 0 0 0 1-1V9.97a1 1 0 0 0-1-1Z" fill="white"></path><path d="M15.38 14.496a.599.599 0 0 1-.441-.179.607.607 0 0 1-.18-.447c0-.184.06-.33.18-.441a.61.61 0 0 1 .441-.173.61.61 0 0 1 .441.173c.12.11.18.257.18.44 0 .18-.06.329-.18.448a.599.599 0 0 1-.441.18ZM14.014 9.97v4.475h-.85l-2.232-2.717v2.717H9.91V9.97h.857l2.225 2.717V9.97h1.023ZM9.085 13.614v.831H5.62V9.97h3.382v.83H6.65v.973h2.078v.805H6.65v1.036h2.436ZM2.937 9.97c.397 0 .74.066 1.03.198.294.132.52.32.677.563.158.242.237.53.237.863 0 .328-.08.616-.237.863-.157.243-.383.43-.677.562-.29.128-.633.192-1.03.192h-.901v1.234H1V9.97h1.937Zm-.057 2.397c.31 0 .547-.066.71-.198.161-.136.242-.328.242-.575 0-.252-.08-.444-.243-.576-.162-.136-.398-.204-.71-.204h-.843v1.553h.844Z" fill="#e05555"></path></svg>