<?xml version="1.0" encoding="UTF-8"?>
<!-- This file is generated by npm run build:icons -->
<svg xmlns="http://www.w3.org/2000/svg" xmlns:xlink="http://www.w3.org/1999/xlink" width="0" height="0">
<defs>
<symbol viewBox="0 0 256 256" xml:space="preserve" id="ball">
<g style="stroke: none; stroke-width: 0; stroke-dasharray: none; stroke-linecap: butt; stroke-linejoin: miter; stroke-miterlimit: 10; fill: none; fill-rule: nonzero; opacity: 1;" transform="translate(1.4065934065934016 1.4065934065934016) scale(2.81 2.81)" >
	<radialGradient id="SVGID_7" gradientUnits="userSpaceOnUse" cx="62.5145" cy="26.0807" r="45" fx="62.5145" fy="26.0807">
<stop offset="0%" style="stop-color:rgb(255,255,255);stop-opacity: 1"></stop>
<stop offset="100%" style="stop-color:rgb(213,213,213);stop-opacity: 1"></stop>
</radialGradient>
<circle cx="45" cy="45" r="45" style="stroke: none; stroke-width: 1; stroke-dasharray: none; stroke-linecap: butt; stroke-linejoin: miter; stroke-miterlimit: 10; fill: url(#SVGID_7); fill-rule: nonzero; opacity: 1;" transform="  matrix(1 0 0 1 0 0) "></circle>
	<path d="M 77.868 21.928 c -4.311 -5.114 -9.335 -9.478 -14.96 -12.987 c -5.295 -2.891 -10.629 -4.555 -15.966 -5 c -0.029 -0.008 -0.054 -0.023 -0.085 -0.026 c -0.042 -0.004 -0.081 0.007 -0.122 0.013 c -5.107 -0.395 -10.217 0.323 -15.296 2.176 c -6.187 2.515 -11.852 5.831 -16.867 9.881 c -8.614 8.149 -12.635 17.7 -12.291 29.212 c 0.406 7.118 2.024 13.662 4.809 19.451 c 0.005 0.01 0.01 0.02 0.015 0.029 c 2.544 4.502 5.74 8.388 9.554 11.646 c 0.018 0.024 0.03 0.051 0.053 0.071 c 0.028 0.026 0.062 0.04 0.094 0.057 c 3.976 3.365 8.62 6.052 13.914 8.032 c 4.464 1.396 9.28 2.099 14.39 2.099 c 1.738 0 3.509 -0.082 5.312 -0.244 c 5.327 -0.908 10.171 -2.614 14.516 -5.09 c 0.027 -0.011 0.057 -0.008 0.083 -0.024 c 0.022 -0.014 0.036 -0.035 0.055 -0.052 c 4.55 -2.617 8.548 -6.086 11.955 -10.4 c 3.416 -4.906 6.025 -11.15 7.758 -18.568 C 86.99 41.829 84.736 31.938 77.868 21.928 z M 77.074 22.533 c 3.023 4.408 5.119 8.796 6.32 13.215 L 43.187 46.383 c 0 0 0 0 0 0 l 4.07 -41.411 c 5.064 0.481 10.126 2.091 15.148 4.832 C 67.915 13.243 72.86 17.539 77.074 22.533 z M 15.23 16.737 c 4.91 -3.963 10.49 -7.229 16.569 -9.7 c 4.797 -1.751 9.628 -2.453 14.458 -2.136 l -4.13 42.03 L 6.465 28.676 C 8.451 24.367 11.358 20.401 15.23 16.737 z M 7.985 64.199 C 5.261 58.532 3.678 52.12 3.281 45.153 c -0.169 -5.649 0.749 -10.815 2.77 -15.566 L 41.746 47.86 L 17.02 75.307 C 13.427 72.179 10.403 68.475 7.985 64.199 z M 50.294 85.348 c -6.935 0.623 -13.419 0.014 -19.248 -1.81 c -5.025 -1.88 -9.454 -4.415 -13.268 -7.578 l 25.466 -28.269 L 64.04 80.606 C 59.906 82.899 55.318 84.491 50.294 85.348 z M 83.813 51.987 c -1.701 7.283 -4.259 13.411 -7.584 18.19 c -3.233 4.093 -7.017 7.411 -11.315 9.939 L 44.101 47.175 l 39.542 -10.459 C 84.856 41.738 84.912 46.804 83.813 51.987 z" style="stroke: none; stroke-width: 1; stroke-dasharray: none; stroke-linecap: butt; stroke-linejoin: miter; stroke-miterlimit: 10; fill: rgb(193,193,193); fill-rule: nonzero; opacity: 1;" transform=" matrix(1 0 0 1 0 0) " stroke-linecap="round" ></path>
	<radialGradient id="SVGID_8" gradientUnits="userSpaceOnUse" cx="85.0022" cy="35.7195" r="83.0505" fx="85.0022" fy="35.7195">
<stop offset="0%" style="stop-color:rgb(63,63,63);stop-opacity: 1"></stop>
<stop offset="60.49%" style="stop-color:rgb(0,0,0);stop-opacity: 1"></stop>
</radialGradient>
<polygon points="27.05,39.77 44.24,29.33 59.58,42.3 52.16,61.01 31.94,59.49 " style="stroke: none; stroke-width: 1; stroke-dasharray: none; stroke-linecap: butt; stroke-linejoin: miter; stroke-miterlimit: 10; fill: url(#SVGID_8); fill-rule: nonzero; opacity: 1;" transform="  matrix(1 0 0 1 0 0) "></polygon>
	<radialGradient id="SVGID_9" gradientUnits="userSpaceOnUse" cx="85.0022" cy="35.7195" r="83.0505" fx="85.0022" fy="35.7195">
<stop offset="0%" style="stop-color:rgb(63,63,63);stop-opacity: 1"></stop>
<stop offset="60.49%" style="stop-color:rgb(0,0,0);stop-opacity: 1"></stop>
</radialGradient>
<path d="M 24.543 85.092 c -3.364 -1.72 -6.483 -3.851 -9.291 -6.327 c -3.095 -2.729 -5.812 -5.877 -8.063 -9.356 l 0 0 c -0.117 -1.662 0.015 -3.321 0.352 -4.979 c 4.823 2.752 9.467 5.111 13.812 6.814 c 3.082 4.846 6.237 9.213 9.518 12.762 C 28.851 84.596 26.735 84.942 24.543 85.092 L 24.543 85.092 z" style="stroke: none; stroke-width: 1; stroke-dasharray: none; stroke-linecap: butt; stroke-linejoin: miter; stroke-miterlimit: 10; fill: url(#SVGID_9); fill-rule: nonzero; opacity: 1;" transform=" matrix(1 0 0 1 0 0) " stroke-linecap="round" ></path>
	<radialGradient id="SVGID_10" gradientUnits="userSpaceOnUse" cx="85.0022" cy="35.7195" r="83.0505" fx="85.0022" fy="35.7195">
<stop offset="0%" style="stop-color:rgb(63,63,63);stop-opacity: 1"></stop>
<stop offset="60.49%" style="stop-color:rgb(0,0,0);stop-opacity: 1"></stop>
</radialGradient>
<path d="M 57.921 88.116 c -2.924 -0.623 -5.459 -1.377 -7.582 -2.27 c 4.033 -3.276 7.57 -6.967 10.599 -11.084 c 4.865 -0.702 10.131 -2.204 15.683 -4.274 c 0.301 2.376 0.09 4.83 -0.913 7.404 l 0.001 0.001 c -2.392 2.235 -5.029 4.211 -7.865 5.886 c -3.09 1.824 -6.417 3.289 -9.923 4.339 L 57.921 88.116 z" style="stroke: none; stroke-width: 1; stroke-dasharray: none; stroke-linecap: butt; stroke-linejoin: miter; stroke-miterlimit: 10; fill: url(#SVGID_10); fill-rule: nonzero; opacity: 1;" transform=" matrix(1 0 0 1 0 0) " stroke-linecap="round" ></path>
	<radialGradient id="SVGID_11" gradientUnits="userSpaceOnUse" cx="85.0022" cy="35.7195" r="83.0505" fx="85.0022" fy="35.7195">
<stop offset="0%" style="stop-color:rgb(63,63,63);stop-opacity: 1"></stop>
<stop offset="60.49%" style="stop-color:rgb(0,0,0);stop-opacity: 1"></stop>
</radialGradient>
<path d="M 89.993 44.206 c -0.111 -6.429 -1.571 -12.529 -4.107 -18.03 l 0 0 c -2.66 -2.198 -5.482 -3.368 -8.399 -3.926 c 0.136 5.161 -0.285 10.465 -1.622 16.007 c 3.668 4.199 6.562 8.774 8.436 13.844 c 2.632 -2.178 4.608 -4.762 5.7 -7.895 L 89.993 44.206 z" style="stroke: none; stroke-width: 1; stroke-dasharray: none; stroke-linecap: butt; stroke-linejoin: miter; stroke-miterlimit: 10; fill: url(#SVGID_11); fill-rule: nonzero; opacity: 1;" transform=" matrix(1 0 0 1 0 0) " stroke-linecap="round" ></path>
	<radialGradient id="SVGID_12" gradientUnits="userSpaceOnUse" cx="85.0022" cy="35.7195" r="83.0505" fx="85.0022" fy="35.7195">
<stop offset="0%" style="stop-color:rgb(63,63,63);stop-opacity: 1"></stop>
<stop offset="60.49%" style="stop-color:rgb(0,0,0);stop-opacity: 1"></stop>
</radialGradient>
<path d="M 8.869 18.173 c 1.953 -0.829 3.968 -1.438 6.047 -1.824 c -1.566 6.064 -2.619 11.742 -2.022 16.18 c -4.093 3.694 -7.522 7.865 -10.112 12.64 c -1.111 -1.088 -1.96 -2.458 -2.614 -4.038 l -0.003 0 c 0.365 -4.281 1.328 -8.39 2.807 -12.245 S 6.444 21.432 8.869 18.173 L 8.869 18.173 z" style="stroke: none; stroke-width: 1; stroke-dasharray: none; stroke-linecap: butt; stroke-linejoin: miter; stroke-miterlimit: 10; fill: url(#SVGID_12); fill-rule: nonzero; opacity: 1;" transform=" matrix(1 0 0 1 0 0) " stroke-linecap="round" ></path>
	<radialGradient id="SVGID_13" gradientUnits="userSpaceOnUse" cx="85.0022" cy="35.7195" r="83.0505" fx="85.0022" fy="35.7195">
<stop offset="0%" style="stop-color:rgb(63,63,63);stop-opacity: 1"></stop>
<stop offset="60.49%" style="stop-color:rgb(0,0,0);stop-opacity: 1"></stop>
</radialGradient>
<path d="M 58.24 1.979 C 54.054 0.693 49.608 0 45 0 c -2.014 0 -3.997 0.132 -5.94 0.389 l 0 0.001 c -3.049 1.437 -5.57 3.45 -7.432 6.178 c 5.841 1.363 10.932 3.172 14.385 5.949 c 4.533 -2.174 9.924 -3.397 16.656 -3.137 C 62.114 7.299 60.411 4.738 58.24 1.979 L 58.24 1.979 z" style="stroke: none; stroke-width: 1; stroke-dasharray: none; stroke-linecap: butt; stroke-linejoin: miter; stroke-miterlimit: 10; fill: url(#SVGID_13); fill-rule: nonzero; opacity: 1;" transform=" matrix(1 0 0 1 0 0) " stroke-linecap="round" ></path>
</g>
</symbol>
<symbol stroke="currentColor" fill="none" stroke-width="0" viewBox="0 0 24 24" id="CgMediaLive"><path fill-rule="evenodd" clip-rule="evenodd" d="M15 12C15 13.6569 13.6569 15 12 15C10.3431 15 9 13.6569 9 12C9 10.3431 10.3431 9 12 9C13.6569 9 15 10.3431 15 12ZM13 12C13 12.5523 12.5523 13 12 13C11.4477 13 11 12.5523 11 12C11 11.4477 11.4477 11 12 11C12.5523 11 13 11.4477 13 12Z" fill="currentColor"></path><path fill-rule="evenodd" clip-rule="evenodd" d="M12 19C15.866 19 19 15.866 19 12C19 8.13401 15.866 5 12 5C8.13401 5 5 8.13401 5 12C5 15.866 8.13401 19 12 19ZM12 17C14.7614 17 17 14.7614 17 12C17 9.23858 14.7614 7 12 7C9.23858 7 7 9.23858 7 12C7 14.7614 9.23858 17 12 17Z" fill="currentColor"></path><path fill-rule="evenodd" clip-rule="evenodd" d="M12 23C18.0751 23 23 18.0751 23 12C23 5.92487 18.0751 1 12 1C5.92487 1 1 5.92487 1 12C1 18.0751 5.92487 23 12 23ZM12 21C16.9706 21 21 16.9706 21 12C21 7.02944 16.9706 3 12 3C7.02944 3 3 7.02944 3 12C3 16.9706 7.02944 21 12 21Z" fill="currentColor"></path></symbol>
<symbol viewBox="0 0 24 24" fill="none" stroke="currentColor" stroke-width="2" stroke-linecap="round" stroke-linejoin="round" class="lucide lucide-shield-question" id="default-team"><path d="M20 13c0 5-3.5 7.5-7.66 8.95a1 1 0 0 1-.67-.01C7.5 20.5 4 18 4 13V6a1 1 0 0 1 1-1c2 0 4.5-1.2 6.24-2.72a1.17 1.17 0 0 1 1.52 0C14.51 3.81 17 5 19 5a1 1 0 0 1 1 1z"></path><path d="M9.1 9a3 3 0 0 1 5.82 1c0 2-3 3-3 3"></path><path d="M12 17h.01"></path></symbol>
<symbol stroke="currentColor" fill="currentColor" stroke-width="0" viewBox="0 0 320 512" id="FaAngleDoubleUp"><path d="M177 255.7l136 136c9.4 9.4 9.4 24.6 0 33.9l-22.6 22.6c-9.4 9.4-24.6 9.4-33.9 0L160 351.9l-96.4 96.4c-9.4 9.4-24.6 9.4-33.9 0L7 425.7c-9.4-9.4-9.4-24.6 0-33.9l136-136c9.4-9.5 24.6-9.5 34-.1zm-34-192L7 199.7c-9.4 9.4-9.4 24.6 0 33.9l22.6 22.6c9.4 9.4 24.6 9.4 33.9 0l96.4-96.4 96.4 96.4c9.4 9.4 24.6 9.4 33.9 0l22.6-22.6c9.4-9.4 9.4-24.6 0-33.9l-136-136c-9.2-9.4-24.4-9.4-33.8 0z"></path></symbol>
<symbol stroke="currentColor" fill="currentColor" stroke-width="0" viewBox="0 0 48 48" enable-background="new 0 0 48 48" id="FcRating"><circle fill="#F44336" cx="24" cy="24" r="21"></circle><polygon fill="#FFCA28" points="24,11 27.9,18.9 36.6,20.2 30.3,26.3 31.8,35 24,30.9 16.2,35 17.7,26.3 11.4,20.2 20.1,18.9"></polygon></symbol>
<symbol stroke="currentColor" fill="currentColor" stroke-width="0" viewBox="0 0 512 512" id="GiBabyfootPlayers"><path d="M128 29.5c-6.557 0-12.898 3.62-18.146 10.924C104.604 47.728 101 58.51 101 70.596c0 12.085 3.605 22.866 8.854 30.17 5.248 7.303 11.59 10.923 18.146 10.923 6.557 0 12.898-3.62 18.146-10.924 5.25-7.304 8.854-18.085 8.854-30.17 0-12.086-3.605-22.868-8.854-30.172C140.898 33.12 134.556 29.5 128 29.5zm256 0c-6.557 0-12.898 3.62-18.146 10.924C360.604 47.728 357 58.51 357 70.596c0 12.085 3.605 22.866 8.854 30.17 5.248 7.303 11.59 10.923 18.146 10.923 6.557 0 12.898-3.62 18.146-10.924 5.25-7.304 8.854-18.085 8.854-30.17 0-12.086-3.605-22.868-8.854-30.172C396.898 33.12 390.556 29.5 384 29.5zm-235.736 93.912c-5.99 3.932-12.87 6.277-20.264 6.277-7.25 0-13.996-2.26-19.902-6.053l-2.67 2.67c.905 4.4 3.467 9.56 7.77 15.298 3.93 5.24 9.223 10.835 14.802 16.532 5.58-5.697 10.87-11.292 14.8-16.532 4.402-5.868 6.963-11.122 7.81-15.584l-2.346-2.608zm215.472 0l-2.345 2.61c.846 4.46 3.408 9.715 7.81 15.583 3.93 5.24 9.22 10.835 14.8 16.532 5.58-5.697 10.87-11.292 14.8-16.532 4.305-5.74 6.867-10.9 7.772-15.298l-2.67-2.67c-5.906 3.792-12.653 6.052-19.902 6.052-7.395 0-14.273-2.346-20.264-6.278zM88.998 134.826l-31.93 10.643c.077 28.387 1.13 55.42 13.496 82.132 43.338 13.938 71.534 13.938 114.872 0 12.367-26.712 13.42-53.745 13.496-82.133l-31.93-10.644c-2.11 6.28-5.692 12.1-9.803 17.58-6.577 8.768-14.837 16.963-22.837 24.963L128 183.733l-6.363-6.365c-8-8-16.26-16.196-22.836-24.964-4.11-5.48-7.693-11.3-9.802-17.58zm256 0l-31.93 10.643c.077 28.387 1.13 55.42 13.496 82.132 43.338 13.938 71.534 13.938 114.872 0 12.367-26.712 13.42-53.745 13.496-82.133l-31.93-10.644c-2.11 6.28-5.692 12.1-9.803 17.58-6.577 8.768-14.837 16.963-22.837 24.963L384 183.733l-6.363-6.365c-8-8-16.26-16.196-22.836-24.964-4.11-5.48-7.693-11.3-9.802-17.58zM18 146.5v36h22.44c-1.203-12.188-1.39-24.202-1.422-36H18zm198.982 0c-.03 11.798-.22 23.812-1.42 36h80.878c-1.203-12.188-1.39-24.202-1.422-36h-78.036zm256 0c-.03 11.798-.22 23.812-1.42 36H494v-36h-21.018zM73 247.24v63.45c5.94 4.56 14.298 7.316 23 7.316 8.627 0 17.07-2.6 23-7.086v-27.914h18v27.914c5.93 4.487 14.373 7.086 23 7.086 8.702 0 17.06-2.757 23-7.317v-63.45c-39.33 11.437-70.67 11.437-110 0zm256 0v63.45c5.94 4.56 14.298 7.316 23 7.316 8.627 0 17.07-2.6 23-7.086v-27.914h18v27.914c5.93 4.487 14.373 7.086 23 7.086 8.702 0 17.06-2.757 23-7.317v-63.45c-39.33 11.437-70.67 11.437-110 0zm-210 84.252c-7.228 3.056-15.142 4.514-23 4.514-7.847 0-15.77-1.42-23-4.45v27.364c5.93 4.487 14.373 7.086 23 7.086s17.07-2.6 23-7.086v-27.428zm18 0v27.428c5.93 4.487 14.373 7.086 23 7.086s17.07-2.6 23-7.086v-27.363c-7.23 3.03-15.153 4.45-23 4.45-7.858 0-15.772-1.46-23-4.515zm238 0c-7.228 3.056-15.142 4.514-23 4.514-7.847 0-15.77-1.42-23-4.45v27.364c5.93 4.487 14.373 7.086 23 7.086s17.07-2.6 23-7.086v-27.428zm18 0v27.428c5.93 4.487 14.373 7.086 23 7.086s17.07-2.6 23-7.086v-27.363c-7.23 3.03-15.153 4.45-23 4.45-7.858 0-15.772-1.46-23-4.515zm-274 48c-7.228 3.056-15.142 4.514-23 4.514-6.4 0-12.813-1.076-18.898-3.068 1.1 3.693 2.132 7.308 3.437 11.222 2.93 8.792 6.073 17.492 7.564 25.846H119v-38.514zm18 0v24.373c4.736-7.94 11.14-14.775 18.723-20.02-6.43-.438-12.806-1.85-18.723-4.353zm238 0c-7.228 3.056-15.142 4.514-23 4.514-6.4 0-12.813-1.076-18.898-3.068 1.1 3.693 2.132 7.308 3.437 11.222 2.93 8.792 6.073 17.492 7.564 25.846H375v-38.514zm18 0v38.514h30.896c1.49-8.354 4.634-17.054 7.565-25.846 1.306-3.914 2.34-7.53 3.438-11.223-6.085 1.993-12.497 3.07-18.898 3.07-7.858 0-15.772-1.46-23-4.515zM192 390.5c-25.512 0-46 20.488-46 46s20.488 46 46 46 46-20.488 46-46-20.488-46-46-46zM89 436.006v44h56.156C134.526 468.57 128 453.274 128 436.5c0-.166.01-.33.012-.494H89zm256 0v44h78v-44h-78z"></path></symbol>
<symbol stroke="currentColor" fill="currentColor" stroke-width="0" viewBox="0 0 512 512" id="GiCaptainHatProfile"><path d="M404.7 79.78h-2.8c-7.5.26-15.8 1.73-24.8 4.3-18 5.16-38.4 14.56-59.3 25.78-41.9 22.4-85.8 52-121.5 68.6-26.4 12.4-59.3 20.4-89.8 27.5-30.5 7.1-58.95 13.4-74.36 20.6-7.13 3.4-10.9 6.9-12.71 9.9-1.8 2.9-2.1 5.2-1.44 8.4 1.32 6.4 8.57 15.4 18.49 21.9l3.29 2.1c162.63-2.3 289.43-13.7 387.73-52.6 2.1-17.6 6.7-34.7 16.5-48.5v-.1l.1-.1c24.5-32.2 8.9-72.58-22.4-84.89-5-1.95-10.7-2.91-17-2.93zm21.9 185.12c-44.2 25.1-103.8 37-169.2 41.2-68.7 4.4-143.7.1-213.52-7.8l1.89 14c31.19 3.2 98.53 11.8 172.83 11.5 77.2-.3 159.6-11.3 208.6-46.2-.2-4.1-.4-8.3-.6-12.7zm7.1 30.2c-46.9 31.5-113.8 42.9-179.9 45.8 44.7 39 89.3 55.1 127.3 59.1 45.2 4.8 81.5-8.7 94.8-19.8 13-10.8 17.5-19.5 18.3-26.2.7-6.8-2-13.3-8.2-20.5-11.3-13.4-33.5-26.4-52.3-38.4z"></path></symbol>
<symbol stroke="currentColor" fill="currentColor" stroke-width="0" viewBox="0 0 512 512" id="GiSoccerKick"><path d="M290.2 49.04c-15.7.1-32.3 13.83-38 35.81-6.5 25.15 4.7 47.85 22.1 52.35 17.4 4.5 38.2-9.9 44.7-35 6.5-25.16-4.6-47.82-22.1-52.33-2.2-.56-4.4-.84-6.7-.83zM89.04 68.3L77.5 87.31c32.4 15.99 63.1 33.49 96.4 46.49 9.5-3.8 18.8-7.8 28-12-40.2-15.4-76.7-33.69-112.86-53.5zm148.06 56.1c-47.8 25.4-97.9 41.6-153.64 61.1l8.08 16.4c51.96-16.1 111.26-32.9 161.16-56-6.9-5.5-12.1-12.9-15.6-21.5zm30.3 34.8c-22.5 10.8-46.8 20.2-71.4 28.7-20.3 45.6-27.7 94.9-36.8 140.1l-2.1 10.5-101.02-39.4-16.03 25.4 130.25 60.7c1-1.4 1.7-2.5 2.9-4.5 3.9-6.7 9.2-16.6 15.2-28.6 11.9-23.8 26.7-55.9 40.4-88.1 13.8-32.1 26.4-64.4 33.9-88.4 1.9-6.1 3.5-11.6 4.7-16.4zm-31.9 134.6c-5.5 12.5-11.1 24.8-16.5 36.3 25 37.4 57 79 94.9 109.2l23.3-17.6c-35.8-39.7-72.9-84.3-101.7-127.9zM423.9 367a48 48 0 0 0-48 48 48 48 0 0 0 48 48 48 48 0 0 0 48-48 48 48 0 0 0-48-48z"></path></symbol>
<symbol stroke="currentColor" fill="currentColor" stroke-width="0" viewBox="0 0 512 512" id="IoIosArrowDropright"><path d="M210.7 147.6c7.5-7.5 19.8-7.5 27.3 0l95.4 95.7c7.3 7.3 7.5 19.1.6 26.6l-94 94.3c-3.8 3.8-8.7 5.7-13.7 5.7-4.9 0-9.9-1.9-13.6-5.6-7.5-7.5-7.6-19.7 0-27.3l79.9-81.1-81.9-81.1c-7.6-7.4-7.6-19.6 0-27.2z"></path><path d="M48 256c0 114.9 93.1 208 208 208s208-93.1 208-208S370.9 48 256 48 48 141.1 48 256zm32 0c0-47 18.3-91.2 51.6-124.4C164.8 98.3 209 80 256 80s91.2 18.3 124.4 51.6C413.7 164.8 432 209 432 256s-18.3 91.2-51.6 124.4C347.2 413.7 303 432 256 432s-91.2-18.3-124.4-51.6C98.3 347.2 80 303 80 256z"></path></symbol>
<symbol stroke="currentColor" fill="currentColor" stroke-width="0" viewBox="0 0 512 512" id="IoIosStats"><path d="M184 448h48c4.4 0 8-3.6 8-8V72c0-4.4-3.6-8-8-8h-48c-4.4 0-8 3.6-8 8v368c0 4.4 3.6 8 8 8zM88 448h48c4.4 0 8-3.6 8-8V296c0-4.4-3.6-8-8-8H88c-4.4 0-8 3.6-8 8v144c0 4.4 3.6 8 8 8zM280.1 448h47.8c4.5 0 8.1-3.6 8.1-8.1V232.1c0-4.5-3.6-8.1-8.1-8.1h-47.8c-4.5 0-8.1 3.6-8.1 8.1v207.8c0 4.5 3.6 8.1 8.1 8.1zM368 136.1v303.8c0 4.5 3.6 8.1 8.1 8.1h47.8c4.5 0 8.1-3.6 8.1-8.1V136.1c0-4.5-3.6-8.1-8.1-8.1h-47.8c-4.5 0-8.1 3.6-8.1 8.1z"></path></symbol>
<symbol viewBox="0 0 200.000000 178.000000" preserveAspectRatio="xMidYMid meet" id="logo">

<g transform="translate(0.000000,178.000000) scale(0.100000,-0.100000)"
fill="#345843" stroke="none">
<path d="M901 1720 c-150 -120 -294 -173 -533 -195 l-67 -6 -7 -56 c-8 -66 2
-253 21 -378 42 -278 161 -508 353 -685 76 -71 274 -210 297 -210 24 0 222
139 297 210 192 178 308 403 353 685 18 115 30 329 21 388 l-7 46 -67 6 c-234
21 -387 77 -525 189 -29 23 -57 45 -63 49 -6 3 -39 -16 -73 -43z m-182 -236
l116 -36 64 37 65 36 50 -27 c28 -15 58 -32 66 -37 11 -6 53 2 134 28 83 26
121 34 129 26 7 -7 -1 -42 -27 -118 -21 -60 -45 -129 -54 -155 l-15 -47 42
-46 c24 -26 57 -76 74 -113 30 -62 32 -75 32 -172 0 -85 -5 -116 -23 -160 -44
-111 -141 -208 -252 -252 -78 -32 -232 -32 -310 0 -111 44 -208 141 -252 252
-18 44 -23 75 -23 160 0 97 2 110 32 172 17 37 50 87 72 111 23 24 41 49 41
54 0 5 -23 74 -51 152 -45 128 -54 171 -33 171 4 0 59 -16 123 -36z"></path>
<path d="M903 1430 c-29 -17 -59 -30 -67 -30 -8 0 -52 12 -96 26 -45 14 -84
24 -86 21 -2 -2 12 -52 33 -110 33 -99 51 -124 68 -97 3 5 35 19 71 30 115 35
267 22 352 -31 12 -7 23 -11 26 -9 8 9 76 213 72 217 -2 3 -41 -7 -86 -21 -44
-14 -88 -26 -96 -26 -8 0 -38 14 -67 30 -30 17 -58 30 -63 30 -5 0 -32 -14
-61 -30z"></path>
<path d="M860 1231 c-105 -34 -202 -120 -247 -218 -56 -122 -36 -287 47 -391
183 -232 539 -187 661 83 18 41 23 69 23 150 1 89 -2 107 -26 158 -36 75 -114
157 -185 192 -50 25 -72 29 -153 32 -52 1 -106 -1 -120 -6z m240 -68 c108 -48
187 -154 198 -265 4 -47 1 -62 -13 -78 -40 -44 -88 -16 -99 58 -17 114 -112
202 -218 202 -34 0 -60 31 -56 66 6 57 84 64 188 17z m-380 -293 c11 -11 20
-31 20 -45 0 -30 -32 -65 -60 -65 -24 0 -70 42 -70 63 0 8 9 26 21 41 25 31
61 34 89 6z m142 -37 c40 -36 9 -105 -48 -105 -35 0 -57 24 -57 63 0 53 64 79
105 42z m118 -93 c11 -11 20 -29 20 -40 0 -24 -42 -70 -63 -70 -26 0 -67 41
-67 66 0 31 33 64 65 64 14 0 34 -9 45 -20z m-201 -16 c12 -15 21 -32 21 -39
0 -24 -41 -65 -66 -65 -31 0 -64 33 -64 65 0 32 33 65 64 65 15 0 33 -11 45
-26z m123 -98 c25 -37 -6 -96 -50 -96 -48 0 -79 57 -54 97 21 33 82 32 104 -1z
m138 -16 c11 -11 20 -29 20 -39 0 -24 -29 -57 -56 -65 -29 -9 -74 28 -74 61 0
57 69 84 110 43z"></path>
<path d="M960 1139 c0 -5 10 -9 23 -9 44 0 116 -32 160 -70 48 -43 73 -86 93
-165 l13 -50 -4 52 c-9 120 -109 222 -236 242 -27 5 -49 4 -49 0z"></path>
<path d="M667 834 c-8 -8 1 -24 14 -24 5 0 9 7 9 15 0 15 -12 20 -23 9z"></path>
<path d="M805 790 c-3 -5 1 -10 9 -10 9 0 16 5 16 10 0 6 -4 10 -9 10 -6 0
-13 -4 -16 -10z"></path>
<path d="M922 699 c2 -6 8 -10 13 -10 5 0 11 4 13 10 2 6 -4 11 -13 11 -9 0
-15 -5 -13 -11z"></path>
<path d="M720 685 c0 -9 5 -15 11 -13 6 2 11 8 11 13 0 5 -5 11 -11 13 -6 2
-11 -4 -11 -13z"></path>
<path d="M840 590 c0 -5 5 -10 10 -10 6 0 10 5 10 10 0 6 -4 10 -10 10 -5 0
-10 -4 -10 -10z"></path>
<path d="M982 569 c2 -6 8 -10 13 -10 5 0 11 4 13 10 2 6 -4 11 -13 11 -9 0
-15 -5 -13 -11z"></path>
<path d="M25 1385 c-25 -24 -31 -50 -17 -72 8 -13 246 -222 249 -219 1 1 0 41
-4 90 l-6 88 -79 69 c-43 38 -87 69 -99 69 -11 0 -31 -11 -44 -25z"></path>
<path d="M1762 1341 l-79 -69 -6 -88 c-4 -49 -5 -89 -4 -90 4 -4 241 206 249
220 20 36 -21 96 -64 96 -10 0 -53 -31 -96 -69z"></path>
<path d="M123 421 c-106 -93 -117 -107 -117 -145 0 -45 38 -93 109 -135 l56
-34 100 99 c54 54 98 102 97 106 -6 15 -151 178 -159 178 -5 0 -44 -31 -86
-69z"></path>
<path d="M1639 404 c-41 -47 -75 -88 -77 -92 -1 -4 43 -52 97 -106 l100 -99
56 34 c100 60 136 138 88 191 -31 35 -173 158 -182 158 -5 0 -42 -39 -82 -86z"></path>
<path d="M552 290 c-44 -39 -83 -70 -88 -70 -4 0 -20 11 -34 25 l-26 25 -92
-93 -93 -94 81 -36 c45 -20 93 -37 106 -37 23 0 65 32 252 198 39 36 72 67 72
71 -1 3 -23 23 -49 43 l-48 37 -81 -69z"></path>
<path d="M1270 338 c-14 -11 -36 -29 -50 -40 l-25 -20 50 -45 c160 -146 257
-223 279 -223 14 0 61 17 106 37 l81 36 -93 94 -92 93 -26 -25 c-14 -14 -30
-25 -35 -25 -4 0 -38 26 -74 58 -100 87 -93 83 -121 60z"></path>
</g>
</symbol>
<symbol viewBox="0 0 640.000000 178.000000" preserveAspectRatio="xMidYMid meet" id="logotype">

<g transform="translate(0.000000,178.000000) scale(0.100000,-0.100000)"
fill="#345843" stroke="none">
<path d="M901 1720 c-150 -120 -294 -173 -533 -195 l-67 -6 -7 -56 c-8 -66 2
-253 21 -378 42 -278 161 -508 353 -685 76 -71 274 -210 297 -210 24 0 222
139 297 210 192 178 308 403 353 685 18 115 30 329 21 388 l-7 46 -67 6 c-234
21 -387 77 -525 189 -29 23 -57 45 -63 49 -6 3 -39 -16 -73 -43z m-182 -236
l116 -36 64 37 65 36 50 -27 c28 -15 58 -32 66 -37 11 -6 53 2 134 28 83 26
121 34 129 26 7 -7 -1 -42 -27 -118 -21 -60 -45 -129 -54 -155 l-15 -47 42
-46 c24 -26 57 -76 74 -113 30 -62 32 -75 32 -172 0 -85 -5 -116 -23 -160 -44
-111 -141 -208 -252 -252 -78 -32 -232 -32 -310 0 -111 44 -208 141 -252 252
-18 44 -23 75 -23 160 0 97 2 110 32 172 17 37 50 87 72 111 23 24 41 49 41
54 0 5 -23 74 -51 152 -45 128 -54 171 -33 171 4 0 59 -16 123 -36z"></path>
<path d="M903 1430 c-29 -17 -59 -30 -67 -30 -8 0 -52 12 -96 26 -45 14 -84
24 -86 21 -2 -2 12 -52 33 -110 33 -99 51 -124 68 -97 3 5 35 19 71 30 115 35
267 22 352 -31 12 -7 23 -11 26 -9 8 9 76 213 72 217 -2 3 -41 -7 -86 -21 -44
-14 -88 -26 -96 -26 -8 0 -38 14 -67 30 -30 17 -58 30 -63 30 -5 0 -32 -14
-61 -30z"></path>
<path d="M860 1231 c-105 -34 -202 -120 -247 -218 -56 -122 -36 -287 47 -391
183 -232 539 -187 661 83 18 41 23 69 23 150 1 89 -2 107 -26 158 -36 75 -114
157 -185 192 -50 25 -72 29 -153 32 -52 1 -106 -1 -120 -6z m240 -68 c108 -48
187 -154 198 -265 4 -47 1 -62 -13 -78 -40 -44 -88 -16 -99 58 -17 114 -112
202 -218 202 -34 0 -60 31 -56 66 6 57 84 64 188 17z m-380 -293 c11 -11 20
-31 20 -45 0 -30 -32 -65 -60 -65 -24 0 -70 42 -70 63 0 8 9 26 21 41 25 31
61 34 89 6z m142 -37 c40 -36 9 -105 -48 -105 -35 0 -57 24 -57 63 0 53 64 79
105 42z m118 -93 c11 -11 20 -29 20 -40 0 -24 -42 -70 -63 -70 -26 0 -67 41
-67 66 0 31 33 64 65 64 14 0 34 -9 45 -20z m-201 -16 c12 -15 21 -32 21 -39
0 -24 -41 -65 -66 -65 -31 0 -64 33 -64 65 0 32 33 65 64 65 15 0 33 -11 45
-26z m123 -98 c25 -37 -6 -96 -50 -96 -48 0 -79 57 -54 97 21 33 82 32 104 -1z
m138 -16 c11 -11 20 -29 20 -39 0 -24 -29 -57 -56 -65 -29 -9 -74 28 -74 61 0
57 69 84 110 43z"></path>
<path d="M960 1139 c0 -5 10 -9 23 -9 44 0 116 -32 160 -70 48 -43 73 -86 93
-165 l13 -50 -4 52 c-9 120 -109 222 -236 242 -27 5 -49 4 -49 0z"></path>
<path d="M667 834 c-8 -8 1 -24 14 -24 5 0 9 7 9 15 0 15 -12 20 -23 9z"></path>
<path d="M805 790 c-3 -5 1 -10 9 -10 9 0 16 5 16 10 0 6 -4 10 -9 10 -6 0
-13 -4 -16 -10z"></path>
<path d="M922 699 c2 -6 8 -10 13 -10 5 0 11 4 13 10 2 6 -4 11 -13 11 -9 0
-15 -5 -13 -11z"></path>
<path d="M720 685 c0 -9 5 -15 11 -13 6 2 11 8 11 13 0 5 -5 11 -11 13 -6 2
-11 -4 -11 -13z"></path>
<path d="M840 590 c0 -5 5 -10 10 -10 6 0 10 5 10 10 0 6 -4 10 -10 10 -5 0
-10 -4 -10 -10z"></path>
<path d="M982 569 c2 -6 8 -10 13 -10 5 0 11 4 13 10 2 6 -4 11 -13 11 -9 0
-15 -5 -13 -11z"></path>
<path d="M25 1385 c-25 -24 -31 -50 -17 -72 8 -13 246 -222 249 -219 1 1 0 41
-4 90 l-6 88 -79 69 c-43 38 -87 69 -99 69 -11 0 -31 -11 -44 -25z"></path>
<path d="M1762 1341 l-79 -69 -6 -88 c-4 -49 -5 -89 -4 -90 4 -4 241 206 249
220 20 36 -21 96 -64 96 -10 0 -53 -31 -96 -69z"></path>
<path d="M2524 1081 c-86 -22 -134 -81 -134 -165 0 -101 46 -148 181 -187 94
-26 127 -51 139 -104 16 -71 -12 -130 -77 -164 -29 -15 -105 -14 -175 3 -54
13 -57 12 -62 -8 -8 -30 1 -35 90 -48 99 -14 161 -5 211 31 50 36 73 84 73
150 0 107 -33 141 -178 188 -49 16 -96 38 -113 54 -25 24 -29 34 -29 84 0 51
3 60 30 85 41 39 102 47 194 27 71 -15 85 -12 86 19 0 25 -174 51 -236 35z"></path>
<path d="M6010 745 l0 -335 25 0 c14 0 25 4 25 10 0 5 19 3 41 -5 121 -43 236
10 275 128 25 76 16 209 -19 269 -47 80 -154 107 -244 60 -23 -12 -45 -22 -48
-22 -3 0 -5 52 -5 115 l0 115 -25 0 -25 0 0 -335z m265 81 c44 -29 60 -73 60
-166 0 -99 -21 -151 -76 -188 -28 -20 -43 -23 -89 -19 -30 2 -67 9 -83 15
l-28 12 3 157 3 158 55 28 c61 31 111 32 155 3z"></path>
<path d="M4960 740 l0 -330 25 0 25 0 0 150 0 150 151 0 150 0 -3 -150 -3
-150 28 0 27 0 0 330 0 330 -27 0 -28 0 0 -152 0 -153 -147 -3 -148 -3 0 156
0 155 -25 0 -25 0 0 -330z"></path>
<path d="M4563 1003 c-9 -3 -13 -26 -13 -64 l0 -59 -40 0 c-33 0 -40 -3 -40
-20 0 -17 7 -20 39 -20 l38 0 5 -173 c3 -151 7 -178 24 -208 26 -44 57 -59
119 -58 72 1 99 11 103 37 3 21 1 22 -70 16 -53 -4 -78 -2 -90 8 -26 19 -39
110 -36 249 l3 124 98 3 c88 2 97 4 97 22 0 18 -9 20 -97 22 l-98 3 -3 63 c-3
61 -8 68 -39 55z"></path>
<path d="M2935 892 c-6 -4 -9 -127 -7 -344 l4 -338 24 0 c24 0 24 1 24 106 0
106 0 106 23 100 51 -15 126 -18 161 -6 95 31 141 113 140 246 0 101 -34 180
-91 215 -49 30 -133 31 -190 1 -52 -27 -51 -27 -55 0 -3 23 -17 32 -33 20z
m242 -62 c53 -32 68 -72 68 -180 0 -77 -4 -101 -20 -128 -40 -66 -103 -85
-201 -61 l-44 11 0 162 0 162 31 18 c67 39 120 45 166 16z"></path>
<path d="M3561 890 c-50 -12 -83 -41 -111 -96 -21 -42 -25 -63 -25 -144 0 -84
3 -102 28 -152 22 -45 36 -61 71 -77 94 -46 210 -14 253 70 45 87 40 256 -10
330 -41 61 -126 89 -206 69z m136 -71 c40 -37 53 -80 53 -171 -1 -135 -43
-198 -135 -198 -92 0 -134 63 -135 197 0 45 5 94 11 110 12 33 46 72 74 84 34
15 104 3 132 -22z"></path>
<path d="M4225 876 c-38 -13 -78 -27 -87 -31 -15 -6 -18 -2 -18 19 0 26 -1 26
-75 26 -68 0 -75 -2 -75 -19 0 -17 8 -20 48 -23 l47 -3 0 -195 0 -194 -47 3
c-46 2 -48 1 -48 -23 l0 -26 155 0 155 0 0 25 c0 14 -3 24 -7 24 -5 -1 -41 -1
-80 0 l-73 1 0 164 0 165 55 20 c30 12 73 24 95 27 36 6 40 10 40 35 0 34 3
34 -85 5z"></path>
<path d="M5500 687 c6 -224 10 -241 72 -273 39 -20 113 -14 181 15 46 20 47
20 47 1 0 -15 7 -20 25 -20 l25 0 0 240 0 240 -25 0 -25 0 0 -195 0 -196 -47
-21 c-27 -11 -70 -23 -96 -26 -40 -4 -52 -1 -72 18 -37 35 -45 79 -45 258 0
161 0 162 -22 162 l-23 0 5 -203z"></path>
<path d="M123 421 c-106 -93 -117 -107 -117 -145 0 -45 38 -93 109 -135 l56
-34 100 99 c54 54 98 102 97 106 -6 15 -151 178 -159 178 -5 0 -44 -31 -86
-69z"></path>
<path d="M1639 404 c-41 -47 -75 -88 -77 -92 -1 -4 43 -52 97 -106 l100 -99
56 34 c100 60 136 138 88 191 -31 35 -173 158 -182 158 -5 0 -42 -39 -82 -86z"></path>
<path d="M552 290 c-44 -39 -83 -70 -88 -70 -4 0 -20 11 -34 25 l-26 25 -92
-93 -93 -94 81 -36 c45 -20 93 -37 106 -37 23 0 65 32 252 198 39 36 72 67 72
71 -1 3 -23 23 -49 43 l-48 37 -81 -69z"></path>
<path d="M1270 338 c-14 -11 -36 -29 -50 -40 l-25 -20 50 -45 c160 -146 257
-223 279 -223 14 0 61 17 106 37 l81 36 -93 94 -92 93 -26 -25 c-14 -14 -30
-25 -35 -25 -4 0 -38 26 -74 58 -100 87 -93 83 -121 60z"></path>
</g>
</symbol>
<symbol stroke="currentColor" fill="currentColor" stroke-width="0" viewBox="0 0 24 24" id="MdCalendarMonth"><path fill="none" d="M0 0h24v24H0z"></path><path d="M19 4h-1V2h-2v2H8V2H6v2H5c-1.11 0-1.99.9-1.99 2L3 20a2 2 0 0 0 2 2h14c1.1 0 2-.9 2-2V6c0-1.1-.9-2-2-2zm0 16H5V10h14v10zM9 14H7v-2h2v2zm4 0h-2v-2h2v2zm4 0h-2v-2h2v2zm-8 4H7v-2h2v2zm4 0h-2v-2h2v2zm4 0h-2v-2h2v2z"></path></symbol>
<symbol stroke="currentColor" fill="currentColor" stroke-width="0" viewBox="0 0 24 24" id="MdOutlinePlace"><path fill="none" d="M0 0h24v24H0z"></path><path d="M12 12c-1.1 0-2-.9-2-2s.9-2 2-2 2 .9 2 2-.9 2-2 2zm6-1.8C18 6.57 15.35 4 12 4s-6 2.57-6 6.2c0 2.34 1.95 5.44 6 9.14 4.05-3.7 6-6.8 6-9.14zM12 2c4.2 0 8 3.22 8 8.2 0 3.32-2.67 7.25-8 11.8-5.33-4.55-8-8.48-8-11.8C4 5.22 7.8 2 12 2z"></path></symbol>
<symbol stroke="currentColor" fill="currentColor" stroke-width="0" viewBox="0 0 24 24" id="MdOutlineStadium"><path fill="none" d="M0 0h24v24H0z"></path><path d="M7 5 3 7V3l4 2zm11-2v4l4-2-4-2zm-7-1v4l4-2-4-2zm2 16h-2v4c-5.05-.15-9-1.44-9-3v-9c0-1.66 4.48-3 10-3s10 1.34 10 3v9c0 1.56-3.95 2.85-9 3v-4zm-8-7.96c1.38.49 3.77.96 7 .96s5.62-.47 7-.96C19 9.86 16.22 9 12 9s-7 .86-7 1.04zm15 1.76c-1.82.73-4.73 1.2-8 1.2s-6.18-.47-8-1.2v6.78c.61.41 2.36 1.01 5 1.28V16h6v3.86c2.64-.27 4.39-.87 5-1.28V11.8z"></path></symbol>
<symbol stroke="currentColor" fill="currentColor" stroke-width="0" viewBox="0 0 24 24" id="MdSports"><path fill="none" d="M0 0h24v24H0z"></path><path d="M11.23 6c-1.66 0-3.22.66-4.36 1.73C6.54 6.73 5.61 6 4.5 6a2.5 2.5 0 0 0 0 5c.21 0 .41-.03.61-.08-.05.25-.09.51-.1.78a6.006 6.006 0 0 0 6.68 6.27c2.55-.28 4.68-2.26 5.19-4.77.15-.71.15-1.4.06-2.06-.09-.6.38-1.13.99-1.13H22V6H11.23zM4.5 9c-.28 0-.5-.22-.5-.5s.22-.5.5-.5.5.22.5.5-.22.5-.5.5zm6.5 6c-1.66 0-3-1.34-3-3s1.34-3 3-3 3 1.34 3 3-1.34 3-3 3z"></path><circle cx="11" cy="12" r="2"></circle></symbol>
<symbol viewBox="0 0 17 16" fill="none" id="penalty">
<path d="M15 8A7.5 7.5 0 1 1 0 8a7.5 7.5 0 0 1 15 0Z" fill="white"></path>
<path d="M1.154 7.03a6.326 6.326 0 0 1 2.333-3.985l.058.034c.35.208.565.585.565.993V5.44c0 .408-.215.785-.565.993l-1.112.658a1.154 1.154 0 0 1-1.176 0l-.103-.06ZM3.497 12.963a6.326 6.326 0 0 1-2.341-3.981l.087-.05c.355-.2.79-.197 1.143.007l1.183.684c.353.204.573.579.577.987l.015 1.292c.004.422-.221.812-.588 1.019l-.076.042ZM13.846 8.938a6.324 6.324 0 0 1-2.313 3.997l-.024-.014a1.154 1.154 0 0 1-.565-.993V10.56c0-.408.215-.785.565-.993l1.112-.658a1.154 1.154 0 0 1 1.176 0l.049.029ZM11.522 3.056a6.325 6.325 0 0 1 2.322 3.992l-.033.02c-.355.2-.79.197-1.143-.007l-1.183-.684a1.154 1.154 0 0 1-.577-.987l-.015-1.292c-.004-.422.22-.812.588-1.019l.04-.023ZM9.83 2.086l-.001.06a1.154 1.154 0 0 1-.577.987l-1.184.684a1.153 1.153 0 0 1-1.142.006L5.799 3.19a1.154 1.154 0 0 1-.587-1.018v-.103a6.468 6.468 0 0 1 2.286-.414c.822 0 1.609.153 2.331.432ZM5.803 6.415c-.353.204-.573.58-.577.987l-.014 1.293c-.005.422.22.812.587 1.018l1.127.634c.355.2.79.198 1.142-.006l1.184-.684c.353-.204.572-.579.577-.987l.014-1.292a1.154 1.154 0 0 0-.588-1.019L8.13 5.725c-.355-.2-.79-.197-1.143.007l-1.183.683Z" fill="black">
</path>
<path d="M16 8.97H1a1 1 0 0 0-1 1v4.526a1 1 0 0 0 1 1h15a1 1 0 0 0 1-1V9.97a1 1 0 0 0-1-1Z" fill="white"></path><path d="M15.38 14.496a.599.599 0 0 1-.441-.179.607.607 0 0 1-.18-.447c0-.184.06-.33.18-.441a.61.61 0 0 1 .441-.173.61.61 0 0 1 .441.173c.12.11.18.257.18.44 0 .18-.06.329-.18.448a.599.599 0 0 1-.441.18ZM14.014 9.97v4.475h-.85l-2.232-2.717v2.717H9.91V9.97h.857l2.225 2.717V9.97h1.023ZM9.085 13.614v.831H5.62V9.97h3.382v.83H6.65v.973h2.078v.805H6.65v1.036h2.436ZM2.937 9.97c.397 0 .74.066 1.03.198.294.132.52.32.677.563.158.242.237.53.237.863 0 .328-.08.616-.237.863-.157.243-.383.43-.677.562-.29.128-.633.192-1.03.192h-.901v1.234H1V9.97h1.937Zm-.057 2.397c.31 0 .547-.066.71-.198.161-.136.242-.328.242-.575 0-.252-.08-.444-.243-.576-.162-.136-.398-.204-.71-.204h-.843v1.553h.844Z" fill="#e05555"></path></symbol>
<symbol viewBox="0 0 256 256" xml:space="preserve" id="red-card">
<g style="stroke: none; stroke-width: 0; stroke-dasharray: none; stroke-linecap: butt; stroke-linejoin: miter; stroke-miterlimit: 10; fill: none; fill-rule: nonzero; opacity: 1;" transform="translate(1.4065934065934016 1.4065934065934016) scale(2.81 2.81)" >
	<path d="M 56.35 62.537 l 0.63 -3.584 c 0.575 -3.271 3.722 -5.477 6.993 -4.902 h 0 c 3.271 0.575 5.477 3.722 4.902 6.993 l -1.345 7.647 L 64.085 90 h -7.517 C 53.808 80.129 53.398 70.884 56.35 62.537 z" style="stroke: none; stroke-width: 1; stroke-dasharray: none; stroke-linecap: butt; stroke-linejoin: miter; stroke-miterlimit: 10; fill: rgb(253,218,170); fill-rule: nonzero; opacity: 1;" transform=" matrix(1 0 0 1 0 0) " stroke-linecap="round" ></path>
	<path d="M 54.932 62.504 c 3.739 0 6.771 -3.031 6.771 -6.771 V 6.771 C 61.703 3.031 58.672 0 54.932 0 H 36.04 c -4.052 0 -7.337 3.285 -7.337 7.337 v 47.829 c 0 4.052 3.285 7.337 7.337 7.337" style="stroke: none; stroke-width: 1; stroke-dasharray: none; stroke-linecap: butt; stroke-linejoin: miter; stroke-miterlimit: 10; fill: rgb(247,62,66); fill-rule: nonzero; opacity: 1;" transform=" matrix(1 0 0 1 0 0) " stroke-linecap="round" ></path>
	<path d="M 29.703 55.167 V 7.337 C 29.703 3.285 32.988 0 37.04 0 h -8.669 c -4.052 0 -7.337 3.285 -7.337 7.337 v 47.829 c 0 4.052 3.285 7.337 7.337 7.337 h 8.669 C 32.988 62.504 29.703 59.219 29.703 55.167 z" style="stroke: none; stroke-width: 1; stroke-dasharray: none; stroke-linecap: butt; stroke-linejoin: miter; stroke-miterlimit: 10; fill: rgb(229,57,61); fill-rule: nonzero; opacity: 1;" transform=" matrix(1 0 0 1 0 0) " stroke-linecap="round" ></path>
	<path d="M 56.358 62.491 l -9.951 0.013 l -1.841 -11.575 c -0.495 -3.115 -3.449 -5.259 -6.565 -4.763 c -0.432 0.069 -0.843 0.189 -1.233 0.346 c -0.33 0.941 -1.935 1.809 -1.769 2.858 l 3.257 20.11 c 0.792 4.45 3.371 8.617 6.587 12.481 c 1.49 2.223 1.068 5.008 1.725 8.04 l 10 0 L 56.358 62.491 z" style="stroke: none; stroke-width: 1; stroke-dasharray: none; stroke-linecap: butt; stroke-linejoin: miter; stroke-miterlimit: 10; fill: rgb(253,218,170); fill-rule: nonzero; opacity: 1;" transform=" matrix(1 0 0 1 0 0) " stroke-linecap="round" ></path>
	<path d="M 39.669 69.491 l -3.174 -19.958 c -0.167 -1.049 -0.057 -2.081 0.273 -3.022 c -2.424 0.976 -3.957 3.535 -3.53 6.219 l 2.923 18.381 c 0.729 4.098 2.856 7.859 5.818 11.417 c 1.372 2.047 2.144 4.679 2.75 7.471 h 4.243 c -0.658 -3.032 -1.496 -5.889 -2.986 -8.112 C 42.77 78.024 40.461 73.941 39.669 69.491 z" style="stroke: none; stroke-width: 1; stroke-dasharray: none; stroke-linecap: butt; stroke-linejoin: miter; stroke-miterlimit: 10; fill: rgb(254,196,120); fill-rule: nonzero; opacity: 1;" transform=" matrix(1 0 0 1 0 0) " stroke-linecap="round" ></path>
	<path d="M 38.612 54.644 l 4.703 -0.864 l -0.552 -3.472 c -0.301 -1.893 -2.096 -3.196 -3.989 -2.895 c -0.431 0.069 -0.832 0.215 -1.19 0.422" style="stroke: none; stroke-width: 1; stroke-dasharray: none; stroke-linecap: butt; stroke-linejoin: miter; stroke-miterlimit: 10; fill: rgb(254,196,120); fill-rule: nonzero; opacity: 1;" transform=" matrix(1 0 0 1 0 0) " stroke-linecap="round" ></path>
</g>
</symbol>
<symbol viewBox="0 0 256 256" xml:space="preserve" id="substitution">

<defs>
</defs>
<g style="stroke: none; stroke-width: 0; stroke-dasharray: none; stroke-linecap: butt; stroke-linejoin: miter; stroke-miterlimit: 10; fill: none; fill-rule: nonzero; opacity: 1;" transform="translate(1.4038166264531924 1.4038166264531355) scale(2.81 2.81)" >
	<path d="M 28.513 25.461 L 12.135 38.394 c -1.204 0.951 -2.951 0.745 -3.902 -0.459 l -7.634 -9.669 c -0.951 -1.204 -0.745 -2.951 0.459 -3.902 l 16.379 -12.932 c 1.204 -0.951 2.951 -0.745 3.902 0.459 l 7.634 9.669 C 29.923 22.763 29.718 24.511 28.513 25.461 z" style="stroke: none; stroke-width: 1; stroke-dasharray: none; stroke-linecap: butt; stroke-linejoin: miter; stroke-miterlimit: 10; fill: rgb(229,57,61); fill-rule: nonzero; opacity: 1;" transform=" matrix(1 0 0 1 0 0) " stroke-linecap="round" ></path>
	<path d="M 61.676 25.512 l 16.379 12.932 c 1.204 0.951 2.951 0.745 3.902 -0.459 l 7.634 -9.669 c 0.951 -1.204 0.745 -2.951 -0.459 -3.902 L 72.753 11.482 c -1.204 -0.951 -2.951 -0.745 -3.902 0.459 l -7.634 9.669 C 60.266 22.814 60.471 24.561 61.676 25.512 z" style="stroke: none; stroke-width: 1; stroke-dasharray: none; stroke-linecap: butt; stroke-linejoin: miter; stroke-miterlimit: 10; fill: rgb(229,57,61); fill-rule: nonzero; opacity: 1;" transform=" matrix(1 0 0 1 0 0) " stroke-linecap="round" ></path>
	<path d="M 71.249 10.802 c -4.203 -1.235 -8.407 -2.166 -12.61 -2.805 c 0 0.016 0.004 0.031 0.004 0.047 c 0 4.977 -5.897 9.012 -13.171 9.012 s -13.171 -4.035 -13.171 -9.012 c 0 -0.054 0.01 -0.106 0.012 -0.159 c -4.451 0.64 -8.901 1.609 -13.352 2.918 c -1.531 0.531 -2.844 1.165 -2.473 2.727 c 4.665 12.88 5.755 39.083 6.509 66.535 c 0.125 1.273 1.194 2.243 2.473 2.243 h 19.636 H 64.74 c 1.279 0 2.348 -0.97 2.473 -2.243 c 0.754 -27.452 1.844 -53.655 6.509 -66.535 C 73.865 12.067 72.642 11.232 71.249 10.802 z" style="stroke: none; stroke-width: 1; stroke-dasharray: none; stroke-linecap: butt; stroke-linejoin: miter; stroke-miterlimit: 10; fill: rgb(247,62,66); fill-rule: nonzero; opacity: 1;" transform=" matrix(1 0 0 1 0 0) " stroke-linecap="round" ></path>
	<path d="M 45.471 19.169 c -7.993 0 -14.429 -6.402 -14.429 -11.703 h 2 c 0 4.368 5.735 9.703 12.429 9.703 c 6.711 0 12.171 -3.594 12.171 -8.012 h 2 C 59.642 14.678 53.285 19.169 45.471 19.169 z" style="stroke: none; stroke-width: 1; stroke-dasharray: none; stroke-linecap: butt; stroke-linejoin: miter; stroke-miterlimit: 10; fill: rgb(229,57,61); fill-rule: nonzero; opacity: 1;" transform=" matrix(1 0 0 1 0 0) " stroke-linecap="round" ></path>
	<path d="M 61.676 25.512 l 16.379 12.932 c 1.204 0.951 2.951 0.745 3.902 -0.459 l 7.634 -9.669 c 0.951 -1.204 0.745 -2.951 -0.459 -3.902 L 72.753 11.482 c -1.204 -0.951 -2.951 -0.745 -3.902 0.459 l -7.634 9.669 C 60.266 22.814 60.471 24.561 61.676 25.512 z" style="stroke: none; stroke-width: 1; stroke-dasharray: none; stroke-linecap: butt; stroke-linejoin: miter; stroke-miterlimit: 10; fill: rgb(116,158,41); fill-rule: nonzero; opacity: 1;" transform=" matrix(1 0 0 1 0 0) " stroke-linecap="round" ></path>
	<path d="M 45.104 82.306 H 64.74 c 1.279 0 2.348 -0.97 2.473 -2.243 c 0.754 -27.452 1.844 -53.655 6.509 -66.535 c 0.143 -1.461 -1.079 -2.296 -2.473 -2.727 c -4.203 -1.235 -8.407 -2.166 -12.61 -2.805 c 0 0.016 0.004 0.031 0.004 0.047 c 0 4.977 -5.897 9.012 -13.171 9.012" style="stroke: none; stroke-width: 1; stroke-dasharray: none; stroke-linecap: butt; stroke-linejoin: miter; stroke-miterlimit: 10; fill: rgb(134,181,51); fill-rule: nonzero; opacity: 1;" transform=" matrix(1 0 0 1 0 0) " stroke-linecap="round" ></path>
	<path d="M 45.471 19.169 v -2 c 6.742 0 12.171 -5.308 12.171 -9.703 h 2 C 59.642 12.878 53.452 19.169 45.471 19.169 z" style="stroke: none; stroke-width: 1; stroke-dasharray: none; stroke-linecap: butt; stroke-linejoin: miter; stroke-miterlimit: 10; fill: rgb(116,158,41); fill-rule: nonzero; opacity: 1;" transform=" matrix(1 0 0 1 0 0) " stroke-linecap="round" ></path>
	<path d="M 57.455 37.493 l -8.192 -4.73 c -0.469 -0.271 -1.056 0.068 -1.056 0.61 v 1.83 H 37.454 h -4.366 c -0.396 0 -0.717 0.321 -0.717 0.717 v 4.366 v 5.651 c 0 0.396 0.321 0.717 0.717 0.717 h 4.366 c 0.396 0 0.717 -0.321 0.717 -0.717 v -4.934 h 10.035 v 1.83 c 0 0.542 0.587 0.881 1.056 0.61 l 8.192 -4.73 C 57.924 38.442 57.924 37.764 57.455 37.493 z" style="stroke: none; stroke-width: 1; stroke-dasharray: none; stroke-linecap: butt; stroke-linejoin: miter; stroke-miterlimit: 10; fill: rgb(255,255,255); fill-rule: nonzero; opacity: 1;" transform=" matrix(1 0 0 1 0 0) " stroke-linecap="round" ></path>
	<path d="M 32.723 57.829 l 8.192 4.73 c 0.469 0.271 1.056 -0.068 1.056 -0.61 v -1.83 h 10.752 h 4.366 c 0.396 0 0.717 -0.321 0.717 -0.717 v -4.366 v -5.651 c 0 -0.396 -0.321 -0.717 -0.717 -0.717 h -4.366 c -0.396 0 -0.717 0.321 -0.717 0.717 v 4.934 H 41.971 v -1.83 c 0 -0.542 -0.587 -0.881 -1.056 -0.61 l -8.192 4.73 C 32.254 56.881 32.254 57.558 32.723 57.829 z" style="stroke: none; stroke-width: 1; stroke-dasharray: none; stroke-linecap: butt; stroke-linejoin: miter; stroke-miterlimit: 10; fill: rgb(255,255,255); fill-rule: nonzero; opacity: 1;" transform=" matrix(1 0 0 1 0 0) " stroke-linecap="round" ></path>
</g>
</symbol>
<symbol viewBox="0 0 120.96611 79.375" id="var"><g fill="#042d4f" stroke-width="1.074449"><path d="m.00000079.00000429v3.46467871 69.507335h37.24751221v5.864406c0 .298289.239731.538579.538019.538579h49.415527c.298289 0 .538579-.24029.538579-.538579v-5.864406h33.226472v-72.97201371zm6.93158141 6.92935731h107.1029578v59.1110744h-107.1029578z"></path><path d="m80.720338 19.085171v33.813917h8.327989v-11.528374h2.013292l7.441837 11.88262 9.135334-1.464721-8.343003-12.369013c3.317273-1.712026 6.336373-4.617293 6.336373-8.977063 0-8.488028-5.48859-11.357366-12.404001-11.357366zm11.328495 6.495689c1.015204.02278 5.184173.28345 5.184173 4.720903 0 5.071377-5.412375 4.720902-5.412375 4.720902h-2.772304v-9.441247z"></path><path d="m55.748556 19.116814-12.379006 34.13652h8.435155l2.170419-6.952125h11.63222l2.318113 7.274159 8.7422-1.401414-11.869298-33.05714zm3.983272 8.747207 3.770617 11.832648h-7.465164z"></path><path d="m23.623114 19.116814-9.279682 1.487478 11.838213 32.971076h9.049804l12.379005-34.13652h-9.003721l-7.364111 23.58757z"></path></g></symbol>
<symbol viewBox="0 0 256 256" xml:space="preserve" id="yellow-card">
<g style="stroke: none; stroke-width: 0; stroke-dasharray: none; stroke-linecap: butt; stroke-linejoin: miter; stroke-miterlimit: 10; fill: none; fill-rule: nonzero; opacity: 1;" transform="translate(1.4065934065934016 1.4065934065934016) scale(2.81 2.81)" >
	<path d="M 56.35 62.537 l 0.63 -3.584 c 0.575 -3.271 3.722 -5.477 6.993 -4.902 h 0 c 3.271 0.575 5.477 3.722 4.902 6.993 l -1.345 7.647 L 64.085 90 h -7.517 C 53.808 80.129 53.398 70.884 56.35 62.537 z" style="stroke: none; stroke-width: 1; stroke-dasharray: none; stroke-linecap: butt; stroke-linejoin: miter; stroke-miterlimit: 10; fill: rgb(253,218,170); fill-rule: nonzero; opacity: 1;" transform=" matrix(1 0 0 1 0 0) " stroke-linecap="round" ></path>
	<path d="M 54.932 62.504 c 3.739 0 6.771 -3.031 6.771 -6.771 V 6.771 C 61.703 3.031 58.672 0 54.932 0 H 36.04 c -4.052 0 -7.337 3.285 -7.337 7.337 v 47.829 c 0 4.052 3.285 7.337 7.337 7.337" style="stroke: none; stroke-width: 1; stroke-dasharray: none; stroke-linecap: butt; stroke-linejoin: miter; stroke-miterlimit: 10; fill: rgb(247,211,62); fill-rule: nonzero; opacity: 1;" transform=" matrix(1 0 0 1 0 0) " stroke-linecap="round" ></path>
	<path d="M 29.703 55.167 V 7.337 C 29.703 3.285 32.988 0 37.04 0 h -8.669 c -4.052 0 -7.337 3.285 -7.337 7.337 v 47.829 c 0 4.052 3.285 7.337 7.337 7.337 h 8.669 C 32.988 62.504 29.703 59.219 29.703 55.167 z" style="stroke: none; stroke-width: 1; stroke-dasharray: none; stroke-linecap: butt; stroke-linejoin: miter; stroke-miterlimit: 10; fill: rgb(237,198,36); fill-rule: nonzero; opacity: 1;" transform=" matrix(1 0 0 1 0 0) " stroke-linecap="round" ></path>
	<path d="M 56.358 62.491 l -9.951 0.013 l -1.841 -11.575 c -0.495 -3.115 -3.449 -5.259 -6.565 -4.763 c -0.432 0.069 -0.843 0.189 -1.233 0.346 c -0.33 0.941 -1.935 1.809 -1.769 2.858 l 3.257 20.11 c 0.792 4.45 3.371 8.617 6.587 12.481 c 1.49 2.223 1.068 5.008 1.725 8.04 l 10 0 L 56.358 62.491 z" style="stroke: none; stroke-width: 1; stroke-dasharray: none; stroke-linecap: butt; stroke-linejoin: miter; stroke-miterlimit: 10; fill: rgb(253,218,170); fill-rule: nonzero; opacity: 1;" transform=" matrix(1 0 0 1 0 0) " stroke-linecap="round" ></path>
	<path d="M 39.669 69.491 l -3.174 -19.958 c -0.167 -1.049 -0.057 -2.081 0.273 -3.022 c -2.424 0.976 -3.957 3.535 -3.53 6.219 l 2.923 18.381 c 0.729 4.098 2.856 7.859 5.818 11.417 c 1.372 2.047 2.144 4.679 2.75 7.471 h 4.243 c -0.658 -3.032 -1.496 -5.889 -2.986 -8.112 C 42.77 78.024 40.461 73.941 39.669 69.491 z" style="stroke: none; stroke-width: 1; stroke-dasharray: none; stroke-linecap: butt; stroke-linejoin: miter; stroke-miterlimit: 10; fill: rgb(254,196,120); fill-rule: nonzero; opacity: 1;" transform=" matrix(1 0 0 1 0 0) " stroke-linecap="round" ></path>
	<path d="M 38.612 54.644 l 4.703 -0.864 l -0.552 -3.472 c -0.301 -1.893 -2.096 -3.196 -3.989 -2.895 c -0.431 0.069 -0.832 0.215 -1.19 0.422" style="stroke: none; stroke-width: 1; stroke-dasharray: none; stroke-linecap: butt; stroke-linejoin: miter; stroke-miterlimit: 10; fill: rgb(254,196,120); fill-rule: nonzero; opacity: 1;" transform=" matrix(1 0 0 1 0 0) " stroke-linecap="round" ></path>
</g>
</symbol>
</defs>
</svg>
