<svg version="1.0" xmlns="http://www.w3.org/2000/svg"
 width="640.000000pt" height="178.000000pt" viewBox="0 0 640.000000 178.000000"
 preserveAspectRatio="xMidYMid meet">

<g transform="translate(0.000000,178.000000) scale(0.100000,-0.100000)"
fill="#345843" stroke="none">
<path d="M901 1720 c-150 -120 -294 -173 -533 -195 l-67 -6 -7 -56 c-8 -66 2
-253 21 -378 42 -278 161 -508 353 -685 76 -71 274 -210 297 -210 24 0 222
139 297 210 192 178 308 403 353 685 18 115 30 329 21 388 l-7 46 -67 6 c-234
21 -387 77 -525 189 -29 23 -57 45 -63 49 -6 3 -39 -16 -73 -43z m-182 -236
l116 -36 64 37 65 36 50 -27 c28 -15 58 -32 66 -37 11 -6 53 2 134 28 83 26
121 34 129 26 7 -7 -1 -42 -27 -118 -21 -60 -45 -129 -54 -155 l-15 -47 42
-46 c24 -26 57 -76 74 -113 30 -62 32 -75 32 -172 0 -85 -5 -116 -23 -160 -44
-111 -141 -208 -252 -252 -78 -32 -232 -32 -310 0 -111 44 -208 141 -252 252
-18 44 -23 75 -23 160 0 97 2 110 32 172 17 37 50 87 72 111 23 24 41 49 41
54 0 5 -23 74 -51 152 -45 128 -54 171 -33 171 4 0 59 -16 123 -36z"/>
<path d="M903 1430 c-29 -17 -59 -30 -67 -30 -8 0 -52 12 -96 26 -45 14 -84
24 -86 21 -2 -2 12 -52 33 -110 33 -99 51 -124 68 -97 3 5 35 19 71 30 115 35
267 22 352 -31 12 -7 23 -11 26 -9 8 9 76 213 72 217 -2 3 -41 -7 -86 -21 -44
-14 -88 -26 -96 -26 -8 0 -38 14 -67 30 -30 17 -58 30 -63 30 -5 0 -32 -14
-61 -30z"/>
<path d="M860 1231 c-105 -34 -202 -120 -247 -218 -56 -122 -36 -287 47 -391
183 -232 539 -187 661 83 18 41 23 69 23 150 1 89 -2 107 -26 158 -36 75 -114
157 -185 192 -50 25 -72 29 -153 32 -52 1 -106 -1 -120 -6z m240 -68 c108 -48
187 -154 198 -265 4 -47 1 -62 -13 -78 -40 -44 -88 -16 -99 58 -17 114 -112
202 -218 202 -34 0 -60 31 -56 66 6 57 84 64 188 17z m-380 -293 c11 -11 20
-31 20 -45 0 -30 -32 -65 -60 -65 -24 0 -70 42 -70 63 0 8 9 26 21 41 25 31
61 34 89 6z m142 -37 c40 -36 9 -105 -48 -105 -35 0 -57 24 -57 63 0 53 64 79
105 42z m118 -93 c11 -11 20 -29 20 -40 0 -24 -42 -70 -63 -70 -26 0 -67 41
-67 66 0 31 33 64 65 64 14 0 34 -9 45 -20z m-201 -16 c12 -15 21 -32 21 -39
0 -24 -41 -65 -66 -65 -31 0 -64 33 -64 65 0 32 33 65 64 65 15 0 33 -11 45
-26z m123 -98 c25 -37 -6 -96 -50 -96 -48 0 -79 57 -54 97 21 33 82 32 104 -1z
m138 -16 c11 -11 20 -29 20 -39 0 -24 -29 -57 -56 -65 -29 -9 -74 28 -74 61 0
57 69 84 110 43z"/>
<path d="M960 1139 c0 -5 10 -9 23 -9 44 0 116 -32 160 -70 48 -43 73 -86 93
-165 l13 -50 -4 52 c-9 120 -109 222 -236 242 -27 5 -49 4 -49 0z"/>
<path d="M667 834 c-8 -8 1 -24 14 -24 5 0 9 7 9 15 0 15 -12 20 -23 9z"/>
<path d="M805 790 c-3 -5 1 -10 9 -10 9 0 16 5 16 10 0 6 -4 10 -9 10 -6 0
-13 -4 -16 -10z"/>
<path d="M922 699 c2 -6 8 -10 13 -10 5 0 11 4 13 10 2 6 -4 11 -13 11 -9 0
-15 -5 -13 -11z"/>
<path d="M720 685 c0 -9 5 -15 11 -13 6 2 11 8 11 13 0 5 -5 11 -11 13 -6 2
-11 -4 -11 -13z"/>
<path d="M840 590 c0 -5 5 -10 10 -10 6 0 10 5 10 10 0 6 -4 10 -10 10 -5 0
-10 -4 -10 -10z"/>
<path d="M982 569 c2 -6 8 -10 13 -10 5 0 11 4 13 10 2 6 -4 11 -13 11 -9 0
-15 -5 -13 -11z"/>
<path d="M25 1385 c-25 -24 -31 -50 -17 -72 8 -13 246 -222 249 -219 1 1 0 41
-4 90 l-6 88 -79 69 c-43 38 -87 69 -99 69 -11 0 -31 -11 -44 -25z"/>
<path d="M1762 1341 l-79 -69 -6 -88 c-4 -49 -5 -89 -4 -90 4 -4 241 206 249
220 20 36 -21 96 -64 96 -10 0 -53 -31 -96 -69z"/>
<path d="M2524 1081 c-86 -22 -134 -81 -134 -165 0 -101 46 -148 181 -187 94
-26 127 -51 139 -104 16 -71 -12 -130 -77 -164 -29 -15 -105 -14 -175 3 -54
13 -57 12 -62 -8 -8 -30 1 -35 90 -48 99 -14 161 -5 211 31 50 36 73 84 73
150 0 107 -33 141 -178 188 -49 16 -96 38 -113 54 -25 24 -29 34 -29 84 0 51
3 60 30 85 41 39 102 47 194 27 71 -15 85 -12 86 19 0 25 -174 51 -236 35z"/>
<path d="M6010 745 l0 -335 25 0 c14 0 25 4 25 10 0 5 19 3 41 -5 121 -43 236
10 275 128 25 76 16 209 -19 269 -47 80 -154 107 -244 60 -23 -12 -45 -22 -48
-22 -3 0 -5 52 -5 115 l0 115 -25 0 -25 0 0 -335z m265 81 c44 -29 60 -73 60
-166 0 -99 -21 -151 -76 -188 -28 -20 -43 -23 -89 -19 -30 2 -67 9 -83 15
l-28 12 3 157 3 158 55 28 c61 31 111 32 155 3z"/>
<path d="M4960 740 l0 -330 25 0 25 0 0 150 0 150 151 0 150 0 -3 -150 -3
-150 28 0 27 0 0 330 0 330 -27 0 -28 0 0 -152 0 -153 -147 -3 -148 -3 0 156
0 155 -25 0 -25 0 0 -330z"/>
<path d="M4563 1003 c-9 -3 -13 -26 -13 -64 l0 -59 -40 0 c-33 0 -40 -3 -40
-20 0 -17 7 -20 39 -20 l38 0 5 -173 c3 -151 7 -178 24 -208 26 -44 57 -59
119 -58 72 1 99 11 103 37 3 21 1 22 -70 16 -53 -4 -78 -2 -90 8 -26 19 -39
110 -36 249 l3 124 98 3 c88 2 97 4 97 22 0 18 -9 20 -97 22 l-98 3 -3 63 c-3
61 -8 68 -39 55z"/>
<path d="M2935 892 c-6 -4 -9 -127 -7 -344 l4 -338 24 0 c24 0 24 1 24 106 0
106 0 106 23 100 51 -15 126 -18 161 -6 95 31 141 113 140 246 0 101 -34 180
-91 215 -49 30 -133 31 -190 1 -52 -27 -51 -27 -55 0 -3 23 -17 32 -33 20z
m242 -62 c53 -32 68 -72 68 -180 0 -77 -4 -101 -20 -128 -40 -66 -103 -85
-201 -61 l-44 11 0 162 0 162 31 18 c67 39 120 45 166 16z"/>
<path d="M3561 890 c-50 -12 -83 -41 -111 -96 -21 -42 -25 -63 -25 -144 0 -84
3 -102 28 -152 22 -45 36 -61 71 -77 94 -46 210 -14 253 70 45 87 40 256 -10
330 -41 61 -126 89 -206 69z m136 -71 c40 -37 53 -80 53 -171 -1 -135 -43
-198 -135 -198 -92 0 -134 63 -135 197 0 45 5 94 11 110 12 33 46 72 74 84 34
15 104 3 132 -22z"/>
<path d="M4225 876 c-38 -13 -78 -27 -87 -31 -15 -6 -18 -2 -18 19 0 26 -1 26
-75 26 -68 0 -75 -2 -75 -19 0 -17 8 -20 48 -23 l47 -3 0 -195 0 -194 -47 3
c-46 2 -48 1 -48 -23 l0 -26 155 0 155 0 0 25 c0 14 -3 24 -7 24 -5 -1 -41 -1
-80 0 l-73 1 0 164 0 165 55 20 c30 12 73 24 95 27 36 6 40 10 40 35 0 34 3
34 -85 5z"/>
<path d="M5500 687 c6 -224 10 -241 72 -273 39 -20 113 -14 181 15 46 20 47
20 47 1 0 -15 7 -20 25 -20 l25 0 0 240 0 240 -25 0 -25 0 0 -195 0 -196 -47
-21 c-27 -11 -70 -23 -96 -26 -40 -4 -52 -1 -72 18 -37 35 -45 79 -45 258 0
161 0 162 -22 162 l-23 0 5 -203z"/>
<path d="M123 421 c-106 -93 -117 -107 -117 -145 0 -45 38 -93 109 -135 l56
-34 100 99 c54 54 98 102 97 106 -6 15 -151 178 -159 178 -5 0 -44 -31 -86
-69z"/>
<path d="M1639 404 c-41 -47 -75 -88 -77 -92 -1 -4 43 -52 97 -106 l100 -99
56 34 c100 60 136 138 88 191 -31 35 -173 158 -182 158 -5 0 -42 -39 -82 -86z"/>
<path d="M552 290 c-44 -39 -83 -70 -88 -70 -4 0 -20 11 -34 25 l-26 25 -92
-93 -93 -94 81 -36 c45 -20 93 -37 106 -37 23 0 65 32 252 198 39 36 72 67 72
71 -1 3 -23 23 -49 43 l-48 37 -81 -69z"/>
<path d="M1270 338 c-14 -11 -36 -29 -50 -40 l-25 -20 50 -45 c160 -146 257
-223 279 -223 14 0 61 17 106 37 l81 36 -93 94 -92 93 -26 -25 c-14 -14 -30
-25 -35 -25 -4 0 -38 26 -74 58 -100 87 -93 83 -121 60z"/>
</g>
</svg>
